# xmcd
#
# Track frame offsets: 
#        150
#        19940
#        42787
#        64827
#        83395
#        105600
#        118470
#        138300
#        155537
#        174620
#        193115
#        216512
#        234150
#        250862
#
# Disc length: 3538 seconds
#
# Revision: 5
# Processed by: cddbd v1.5.2PL0 Copyright (c) Steve Scherf et al.
# Submitted via: ExactAudioCopy v1.3
#
DISCID=c00dd00e
DTITLE=The Charlie Watts Quintet - Long ago and far away
DYEAR=1996
DGENRE=Jazz
TTITLE0=I've Got a Crush on You
TTITLE1=Long Ago (and Far Away)
TTITLE2=More Than You Know
TTITLE3=I Should Care
TTITLE4=Good Morning Heartache
TTITLE5=Someday (You'll be Sorry)
TTITLE6=I Get Along Without you Very Well
TTITLE7=What's New?
TTITLE8=Stairway to the Stars
TTITLE9=In The Still of the Night
TTITLE10=All or Nothing at All
TTITLE11=I'm in the Mood for Love
TTITLE12=In a Sentimental Mood
TTITLE13=Never Let Me Go
EXTD=(c) 1996 Virgin Records America Inc\n\nSubmitted by Hartmut Miche
EXTD=ls <michels@carpe.net> YEAR: 1996
EXTT0=
EXTT1=
EXTT2=
EXTT3=
EXTT4=
EXTT5=
EXTT6=
EXTT7=
EXTT8=
EXTT9=
EXTT10=
EXTT11=
EXTT12=
EXTT13=
PLAYORDER=
